# 3ds Max Wavefront OBJ Exporter v0.97b - (c)2007 guruware
# File Created: 22.06.2017 00:20:25

mtllib GemGreen.mtl

#
# object GemGreen
#

v  -37.6287 31.7355 -2.3244
v  0.0000 0.0000 -0.0000
v  -45.1441 31.7354 26.0640
v  -20.8273 31.7355 -31.4252
v  0.0000 31.7354 -52.1904
v  0.0000 46.3316 -42.8400
v  -8.5318 46.3316 -35.0354
v  -34.6074 46.3316 10.1289
v  -37.1005 46.3316 21.4200
v  -23.9851 46.3316 -13.8478
v  0.0000 54.6302 -26.5369
v  -22.9816 54.6302 13.2685
v  -18.6461 54.6302 -1.1518
v  -10.3205 54.6302 -15.5721
v  -8.3255 54.6302 16.7239
v  18.6461 54.6302 -1.1518
v  8.3256 54.6302 16.7239
v  22.9816 54.6302 13.2685
v  10.3205 54.6302 -15.5721
v  20.8273 31.7355 -31.4252
v  37.6286 31.7355 -2.3244
v  45.1441 31.7354 26.0639
v  37.1005 46.3316 21.4200
v  34.6074 46.3316 10.1289
v  8.5318 46.3316 -35.0354
v  23.9851 46.3316 -13.8478
v  16.8013 31.7354 33.7496
v  -16.8013 31.7354 33.7496
v  -26.0756 46.3316 24.9064
v  26.0756 46.3316 24.9064
v  0.0000 46.3316 27.6956
# 31 vertices

vn -0.6297 -0.7588 -0.1667
vn -0.5933 -0.7285 -0.3425
vn -0.4600 -0.7587 -0.4613
vn -0.6102 0.4273 -0.6671
vn -0.6511 0.3869 -0.6530
vn -0.8839 0.4250 -0.1952
vn -0.8918 0.3860 -0.2361
vn -0.7999 0.3831 -0.4619
vn -0.8062 0.4716 -0.3572
vn -0.7124 0.4716 -0.5196
vn -0.3833 0.8231 -0.4190
vn -0.5545 0.8231 -0.1224
vn -0.5830 0.7703 -0.2583
vn -0.5436 0.8233 -0.1634
vn -0.5224 0.7976 -0.3016
vn -0.5152 0.7703 -0.3758
vn -0.4133 0.8233 -0.3890
vn 0.0000 1.0000 -0.0000
vn 0.4600 -0.7587 -0.4613
vn 0.5933 -0.7285 -0.3425
vn 0.6297 -0.7588 -0.1667
vn 0.8839 0.4250 -0.1952
vn 0.8918 0.3860 -0.2361
vn 0.6102 0.4273 -0.6671
vn 0.6511 0.3869 -0.6530
vn 0.7999 0.3831 -0.4618
vn 0.7124 0.4716 -0.5196
vn 0.8062 0.4716 -0.3572
vn 0.5545 0.8231 -0.1224
vn 0.3833 0.8231 -0.4190
vn 0.5152 0.7703 -0.3758
vn 0.4133 0.8233 -0.3890
vn 0.5224 0.7976 -0.3016
vn 0.5830 0.7703 -0.2583
vn 0.5436 0.8233 -0.1634
vn 0.1705 -0.7588 0.6286
vn 0.0000 -0.7285 0.6850
vn -0.1705 -0.7588 0.6286
vn -0.2729 0.4250 0.8631
vn -0.2414 0.3860 0.8903
vn 0.2729 0.4250 0.8631
vn 0.2414 0.3860 0.8903
vn 0.0000 0.3831 0.9237
vn 0.0938 0.4716 0.8768
vn -0.0938 0.4716 0.8768
vn -0.1712 0.8231 0.5414
vn 0.1712 0.8231 0.5414
vn 0.0678 0.7703 0.6341
vn 0.1302 0.8233 0.5524
vn 0.0000 0.7976 0.6032
vn -0.0678 0.7703 0.6341
vn -0.1302 0.8233 0.5524
# 52 vertex normals

vt 0.2411 0.2267 0.0000
# 1 texture coords

g GemGreen
usemtl Mesh_0072_rip
s off
f 1/1/1 2/1/1 3/1/1 
f 4/1/2 2/1/2 1/1/2 
f 2/1/3 4/1/3 5/1/3 
f 6/1/4 5/1/4 7/1/4 
f 5/1/5 4/1/5 7/1/5 
f 8/1/6 3/1/6 9/1/6 
f 8/1/7 1/1/7 3/1/7 
f 10/1/8 4/1/8 1/1/8 
f 10/1/9 1/1/9 8/1/9 
f 7/1/10 4/1/10 10/1/10 
f 11/1/11 6/1/11 7/1/11 
f 12/1/12 8/1/12 9/1/12 
f 13/1/13 10/1/13 8/1/13 
f 13/1/14 8/1/14 12/1/14 
f 14/1/15 10/1/15 13/1/15 
f 14/1/16 7/1/16 10/1/16 
f 11/1/17 7/1/17 14/1/17 
f 15/1/18 13/1/18 12/1/18 
f 16/1/18 17/1/18 18/1/18 
f 15/1/18 17/1/18 13/1/18 
f 17/1/18 16/1/18 13/1/18 
f 19/1/18 11/1/18 14/1/18 
f 16/1/18 19/1/18 13/1/18 
f 19/1/18 14/1/18 13/1/18 
f 20/1/19 2/1/19 5/1/19 
f 21/1/20 2/1/20 20/1/20 
f 2/1/21 21/1/21 22/1/21 
f 23/1/22 22/1/22 24/1/22 
f 22/1/23 21/1/23 24/1/23 
f 25/1/24 5/1/24 6/1/24 
f 25/1/25 20/1/25 5/1/25 
f 26/1/26 21/1/26 20/1/26 
f 26/1/27 20/1/27 25/1/27 
f 24/1/28 21/1/28 26/1/28 
f 18/1/29 23/1/29 24/1/29 
f 11/1/30 25/1/30 6/1/30 
f 19/1/31 26/1/31 25/1/31 
f 19/1/32 25/1/32 11/1/32 
f 16/1/33 26/1/33 19/1/33 
f 16/1/34 24/1/34 26/1/34 
f 18/1/35 24/1/35 16/1/35 
f 27/1/36 2/1/36 22/1/36 
f 28/1/37 2/1/37 27/1/37 
f 2/1/38 28/1/38 3/1/38 
f 9/1/39 3/1/39 29/1/39 
f 3/1/40 28/1/40 29/1/40 
f 30/1/41 22/1/41 23/1/41 
f 30/1/42 27/1/42 22/1/42 
f 31/1/43 28/1/43 27/1/43 
f 31/1/44 27/1/44 30/1/44 
f 29/1/45 28/1/45 31/1/45 
f 12/1/46 9/1/46 29/1/46 
f 18/1/47 30/1/47 23/1/47 
f 17/1/48 31/1/48 30/1/48 
f 17/1/49 30/1/49 18/1/49 
f 15/1/50 31/1/50 17/1/50 
f 15/1/51 29/1/51 31/1/51 
f 12/1/52 29/1/52 15/1/52 
# 0 polygons - 58 triangles

