# 3ds Max Wavefront OBJ Exporter v0.97b - (c)2007 guruware
# File Created: 22.06.2017 00:20:47

mtllib GemPurple.mtl

#
# object GemPurple
#

v  0.0051 51.2434 -0.4498
v  -0.2060 51.2434 32.3725
v  18.4413 51.2434 -0.4498
v  18.2303 51.2434 32.3725
v  -18.4311 51.2434 -0.4498
v  -18.6422 51.2434 32.3725
v  0.0051 51.2434 -33.2722
v  -18.4311 51.2434 -33.2722
v  18.4413 51.2434 -33.2722
v  -19.7492 44.2787 -46.8246
v  -29.6264 44.2787 -37.5644
v  -22.2429 33.7587 -48.1918
v  -33.3669 33.7587 -38.6598
v  29.6367 44.2787 -37.5644
v  19.7595 44.2787 -46.8246
v  33.3771 33.7587 -38.6598
v  22.2531 33.7587 -48.1918
v  -9.8721 44.2787 -46.8246
v  0.0051 33.7587 -49.5440
v  9.8823 44.2787 -46.8246
v  -20.0320 44.2787 45.8215
v  -10.1548 44.2787 45.8215
v  9.5996 44.2787 45.8215
v  19.4768 44.2787 45.8215
v  21.9347 33.7587 47.1744
v  -22.5613 33.7587 47.1744
v  -0.3133 33.7587 48.5125
v  30.2685 44.2787 -12.8558
v  -29.9091 44.2787 36.5613
v  -33.6852 33.7587 37.6424
v  30.2685 44.2787 11.8527
v  29.3539 44.2787 36.5613
v  33.0587 33.7587 37.6424
v  0.0051 -0.1874 -0.2585
v  -34.1120 33.7587 -25.9427
v  -34.3286 33.7587 24.9254
v  -30.2583 44.2787 11.8527
v  -35.5494 33.7587 -0.5087
v  -30.2583 44.2787 -12.8558
v  33.7972 33.7587 24.9254
v  35.2220 33.7587 -0.5087
v  34.0139 33.7587 -25.9427
# 42 vertices

vn 0.0000 1.0000 -0.0000
vn -0.3710 0.8401 -0.3957
vn -0.6624 0.2489 -0.7066
vn -0.6214 0.2965 -0.7252
vn 0.3710 0.8401 -0.3957
vn 0.6516 0.3040 -0.6950
vn 0.6308 0.2452 -0.7362
vn 0.0000 0.8894 -0.4571
vn 0.0000 0.1289 -0.9917
vn -0.0595 0.1971 -0.9786
vn 0.0000 0.2503 -0.9682
vn 0.0595 0.1971 -0.9786
vn 0.0000 0.8880 0.4599
vn 0.0000 0.1276 0.9918
vn 0.0000 0.2478 0.9688
vn 0.0589 0.1950 0.9790
vn -0.0589 0.1953 0.9790
vn 0.5245 0.8513 -0.0134
vn 0.5074 0.8617 -0.0000
vn -0.3716 0.8395 0.3964
vn -0.6306 0.2463 0.7360
vn -0.6513 0.3052 0.6947
vn 0.3740 0.8373 0.3989
vn 0.6220 0.2936 0.7259
vn 0.6630 0.2458 0.7071
vn -0.3612 -0.8318 -0.4215
vn -0.6893 -0.7233 -0.0404
vn -0.9386 0.3418 0.0475
vn -0.9270 0.3749 0.0131
vn -0.9122 0.4074 0.0438
vn -0.8934 0.4493 -0.0000
vn -0.9152 0.3996 -0.0517
vn -0.9288 0.3698 -0.0238
vn -0.9390 0.3396 -0.0550
vn -0.6899 -0.7229 -0.0390
vn -0.6903 -0.7228 0.0331
vn -0.6896 -0.7234 0.0349
vn 0.5049 0.8632 0.0032
vn 0.5253 0.8507 0.0194
vn -0.3620 -0.8310 0.4225
vn -0.0343 -0.8204 0.5708
vn 0.0343 -0.8202 0.5711
vn 0.3641 -0.8288 0.4249
vn 0.6931 -0.7198 0.0402
vn 0.6936 -0.7193 0.0389
vn 0.6935 -0.7197 -0.0329
vn 0.6928 -0.7203 -0.0347
vn 0.9396 0.3390 -0.0471
vn 0.9321 0.3615 -0.0238
vn 0.9227 0.3830 -0.0438
vn 0.9047 0.4260 -0.0000
vn 0.9256 0.3749 0.0519
vn 0.9338 0.3562 0.0346
vn 0.9400 0.3367 0.0546
vn 0.3612 -0.8318 -0.4215
vn 0.0345 -0.8231 -0.5669
vn -0.0345 -0.8231 -0.5669
vn -0.5238 0.8518 0.0074
vn -0.5100 0.8602 -0.0033
vn -0.5074 0.8617 -0.0000
vn -0.5245 0.8513 -0.0134
# 61 vertex normals

vt 0.2164 0.2081 0.0000
# 1 texture coords

g GemPurple
usemtl Mesh_0105_rip
s off
f 1/1/1 2/1/1 3/1/1 
f 2/1/1 4/1/1 3/1/1 
f 1/1/1 5/1/1 2/1/1 
f 5/1/1 6/1/1 2/1/1 
f 1/1/1 7/1/1 5/1/1 
f 7/1/1 8/1/1 5/1/1 
f 3/1/1 9/1/1 1/1/1 
f 9/1/1 7/1/1 1/1/1 
f 10/1/2 11/1/2 8/1/2 
f 10/1/3 12/1/3 11/1/3 
f 12/1/4 13/1/4 11/1/4 
f 14/1/5 15/1/5 9/1/5 
f 14/1/6 16/1/6 15/1/6 
f 16/1/7 17/1/7 15/1/7 
f 18/1/8 10/1/8 8/1/8 
f 18/1/9 12/1/9 10/1/9 
f 18/1/10 19/1/10 12/1/10 
f 20/1/11 19/1/11 18/1/11 
f 15/1/9 17/1/9 20/1/9 
f 17/1/12 19/1/12 20/1/12 
f 6/1/13 21/1/13 22/1/13 
f 2/1/13 6/1/13 22/1/13 
f 4/1/13 23/1/13 24/1/13 
f 4/1/13 2/1/13 23/1/13 
f 22/1/13 23/1/13 2/1/13 
f 23/1/14 25/1/14 24/1/14 
f 21/1/14 26/1/14 22/1/14 
f 22/1/15 27/1/15 23/1/15 
f 27/1/16 25/1/16 23/1/16 
f 26/1/17 27/1/17 22/1/17 
f 9/1/18 28/1/18 14/1/18 
f 3/1/19 28/1/19 9/1/19 
f 21/1/20 6/1/20 29/1/20 
f 26/1/21 21/1/21 30/1/21 
f 21/1/22 29/1/22 30/1/22 
f 3/1/19 31/1/19 28/1/19 
f 32/1/23 4/1/23 24/1/23 
f 33/1/24 32/1/24 25/1/24 
f 32/1/25 24/1/25 25/1/25 
f 12/1/26 34/1/26 13/1/26 
f 13/1/27 34/1/27 35/1/27 
f 29/1/28 36/1/28 30/1/28 
f 37/1/29 36/1/29 29/1/29 
f 37/1/30 38/1/30 36/1/30 
f 39/1/31 38/1/31 37/1/31 
f 39/1/32 35/1/32 38/1/32 
f 11/1/33 35/1/33 39/1/33 
f 11/1/34 13/1/34 35/1/34 
f 35/1/35 34/1/35 38/1/35 
f 38/1/36 34/1/36 36/1/36 
f 36/1/37 34/1/37 30/1/37 
f 4/1/38 31/1/38 3/1/38 
f 4/1/39 32/1/39 31/1/39 
f 30/1/40 34/1/40 26/1/40 
f 26/1/41 34/1/41 27/1/41 
f 27/1/42 34/1/42 25/1/42 
f 25/1/43 34/1/43 33/1/43 
f 33/1/44 34/1/44 40/1/44 
f 40/1/45 34/1/45 41/1/45 
f 41/1/46 34/1/46 42/1/46 
f 42/1/47 34/1/47 16/1/47 
f 14/1/48 42/1/48 16/1/48 
f 28/1/49 42/1/49 14/1/49 
f 28/1/50 41/1/50 42/1/50 
f 31/1/51 41/1/51 28/1/51 
f 31/1/52 40/1/52 41/1/52 
f 32/1/53 40/1/53 31/1/53 
f 32/1/54 33/1/54 40/1/54 
f 16/1/55 34/1/55 17/1/55 
f 17/1/56 34/1/56 19/1/56 
f 34/1/57 12/1/57 19/1/57 
f 6/1/58 37/1/58 29/1/58 
f 5/1/59 37/1/59 6/1/59 
f 5/1/60 39/1/60 37/1/60 
f 8/1/60 39/1/60 5/1/60 
f 8/1/61 11/1/61 39/1/61 
f 9/1/8 15/1/8 20/1/8 
f 9/1/8 20/1/8 7/1/8 
f 20/1/8 18/1/8 7/1/8 
f 7/1/8 18/1/8 8/1/8 
# 0 polygons - 80 triangles

