# 3ds Max Wavefront OBJ Exporter v0.97b - (c)2007 guruware
# File Created: 22.06.2017 00:20:55

mtllib GemYellow.mtl

#
# object GemYellow
#

v  16.4710 50.9770 16.4710
v  16.4710 50.9769 -16.4710
v  -16.4710 50.9770 16.4710
v  -16.4710 50.9769 -16.4710
v  -32.5665 33.8638 -19.5399
v  0.0000 0.0000 -0.0000
v  -32.5665 33.8638 19.5399
v  -19.5399 33.8638 -32.5665
v  19.5399 33.8638 -32.5665
v  32.5665 33.8638 -19.5399
v  32.5665 33.8638 19.5399
v  19.5399 33.8638 32.5665
v  -19.5399 33.8638 32.5665
v  27.3284 43.0297 27.2457
v  30.6781 43.0297 18.4069
v  18.4069 43.0297 30.6781
v  31.3999 43.0297 -0.0000
v  30.6781 43.0296 -18.4069
v  -27.3284 43.0297 -27.2457
v  -30.6781 43.0296 -18.4069
v  -18.4069 43.0297 -30.6781
v  -31.3999 43.0297 -0.0000
v  -30.6781 43.0297 18.4069
v  -27.2457 43.0297 27.3284
v  -18.4069 43.0297 30.6781
v  0.0000 43.0297 31.3999
v  27.2457 43.0296 -27.3284
v  18.4069 43.0297 -30.6781
v  0.0000 43.0297 -31.3999
# 29 vertices

vn 0.0000 1.0000 -0.0000
vn -0.7208 -0.6932 -0.0000
vn -0.4785 -0.7363 -0.4785
vn 0.0000 -0.6932 -0.7208
vn 0.4785 -0.7363 -0.4785
vn 0.7208 -0.6932 -0.0000
vn 0.4785 -0.7363 0.4785
vn 0.0000 -0.6932 0.7208
vn -0.4785 -0.7363 0.4785
vn 0.9100 0.2301 0.3449
vn 0.6946 -0.1870 0.6946
vn 0.3494 0.2303 0.9082
vn 0.1777 0.8690 0.4619
vn 0.4624 0.8692 0.1752
vn 0.4861 0.8737 -0.0191
vn 0.4699 0.8827 -0.0000
vn 0.4861 0.8737 0.0191
vn 0.9778 0.2062 -0.0383
vn 0.9778 0.2062 0.0383
vn 0.9920 0.1263 -0.0000
vn -0.9100 0.2301 -0.3449
vn -0.6946 -0.1870 -0.6946
vn -0.3494 0.2303 -0.9082
vn -0.1777 0.8690 -0.4619
vn -0.4624 0.8692 -0.1752
vn -0.4861 0.8737 0.0191
vn -0.4699 0.8827 -0.0000
vn -0.4861 0.8737 -0.0191
vn -0.9778 0.2062 0.0383
vn -0.9778 0.2062 -0.0383
vn -0.9920 0.1263 -0.0000
vn -0.3449 0.2301 0.9100
vn -0.6946 -0.1870 0.6946
vn -0.9082 0.2303 0.3494
vn -0.4619 0.8690 0.1777
vn -0.1752 0.8692 0.4624
vn 0.0191 0.8737 0.4861
vn 0.0000 0.8827 0.4699
vn -0.0191 0.8737 0.4861
vn 0.0383 0.2062 0.9778
vn -0.0383 0.2062 0.9778
vn 0.0000 0.1263 0.9920
vn 0.3449 0.2301 -0.9100
vn 0.6946 -0.1870 -0.6946
vn 0.9082 0.2303 -0.3494
vn 0.4619 0.8690 -0.1777
vn 0.1752 0.8692 -0.4623
vn -0.0191 0.8737 -0.4861
vn 0.0000 0.8827 -0.4699
vn 0.0191 0.8737 -0.4861
vn -0.0383 0.2062 -0.9778
vn 0.0383 0.2062 -0.9778
vn 0.0000 0.1263 -0.9920
# 53 vertex normals

vt 0.3050 0.2700 0.0000
# 1 texture coords

g GemYellow
usemtl Mesh_0037_rip
s off
f 1/1/1 2/1/1 3/1/1 
f 2/1/1 4/1/1 3/1/1 
f 5/1/2 6/1/2 7/1/2 
f 8/1/3 6/1/3 5/1/3 
f 9/1/4 6/1/4 8/1/4 
f 10/1/5 6/1/5 9/1/5 
f 11/1/6 6/1/6 10/1/6 
f 12/1/7 6/1/7 11/1/7 
f 13/1/8 6/1/8 12/1/8 
f 7/1/9 6/1/9 13/1/9 
f 14/1/10 11/1/10 15/1/10 
f 14/1/11 12/1/11 11/1/11 
f 16/1/12 12/1/12 14/1/12 
f 1/1/13 16/1/13 14/1/13 
f 14/1/14 15/1/14 1/1/14 
f 2/1/15 17/1/15 18/1/15 
f 1/1/16 17/1/16 2/1/16 
f 15/1/17 17/1/17 1/1/17 
f 17/1/18 10/1/18 18/1/18 
f 15/1/19 11/1/19 17/1/19 
f 11/1/20 10/1/20 17/1/20 
f 19/1/21 5/1/21 20/1/21 
f 19/1/22 8/1/22 5/1/22 
f 21/1/23 8/1/23 19/1/23 
f 4/1/24 21/1/24 19/1/24 
f 19/1/25 20/1/25 4/1/25 
f 3/1/26 22/1/26 23/1/26 
f 4/1/27 22/1/27 3/1/27 
f 20/1/28 22/1/28 4/1/28 
f 22/1/29 7/1/29 23/1/29 
f 20/1/30 5/1/30 22/1/30 
f 5/1/31 7/1/31 22/1/31 
f 24/1/32 13/1/32 25/1/32 
f 24/1/33 7/1/33 13/1/33 
f 23/1/34 7/1/34 24/1/34 
f 3/1/35 23/1/35 24/1/35 
f 24/1/36 25/1/36 3/1/36 
f 1/1/37 26/1/37 16/1/37 
f 3/1/38 26/1/38 1/1/38 
f 25/1/39 26/1/39 3/1/39 
f 26/1/40 12/1/40 16/1/40 
f 25/1/41 13/1/41 26/1/41 
f 13/1/42 12/1/42 26/1/42 
f 27/1/43 9/1/43 28/1/43 
f 27/1/44 10/1/44 9/1/44 
f 18/1/45 10/1/45 27/1/45 
f 2/1/46 18/1/46 27/1/46 
f 27/1/47 28/1/47 2/1/47 
f 4/1/48 29/1/48 21/1/48 
f 2/1/49 29/1/49 4/1/49 
f 28/1/50 29/1/50 2/1/50 
f 29/1/51 8/1/51 21/1/51 
f 28/1/52 9/1/52 29/1/52 
f 9/1/53 8/1/53 29/1/53 
# 0 polygons - 54 triangles

