# Blender v2.79 (sub 0) OBJ File: ''
# www.blender.org
mtllib propuesta1-2.mtl
o Cubo.034_Cubo.037
v -5.696155 7.095120 -1.734157
v 6.559327 7.177591 0.875084
v 6.624557 7.178030 0.568690
v -5.630925 7.095560 -2.040551
v 6.625961 6.969193 0.568690
v -5.629520 6.886724 -2.040551
v 6.560732 6.968755 0.875084
v -5.694749 6.886285 -1.734157
v -5.696155 7.095119 -1.212056
v 6.559327 7.177590 1.397185
v 6.624557 7.178029 1.090792
v -5.630925 7.095558 -1.518450
v 6.625962 6.969193 1.090792
v -5.629519 6.886723 -1.518450
v 6.560732 6.968754 1.397185
v -5.694749 6.886282 -1.212056
v -5.696155 7.095119 -2.256258
v 6.559326 7.177590 0.352983
v 6.624556 7.178029 0.046589
v -5.630926 7.095558 -2.562652
v 6.625961 6.969193 0.046588
v -5.629520 6.886723 -2.562652
v 6.560732 6.968754 0.352983
v -5.694749 6.886283 -2.256258
v -5.696155 7.095119 -2.778359
v 6.559327 7.177590 -0.169118
v 6.624557 7.178029 -0.475512
v -5.630925 7.095558 -3.084754
v 6.625962 6.969193 -0.475512
v -5.629519 6.886723 -3.084754
v 6.560732 6.968754 -0.169118
v -5.694749 6.886283 -2.778359
v -5.695591 7.136577 -0.689955
v 6.560167 7.136576 1.919287
v 6.625398 7.136576 1.612893
v -5.630361 7.136577 -0.996348
v 6.625399 6.927735 1.612893
v -5.630360 6.927736 -0.996348
v 6.560167 6.927735 1.919286
v -5.695590 6.927736 -0.689954
v -5.697522 7.065511 -0.167853
v 6.557959 7.147981 2.441388
v 6.623189 7.148420 2.134994
v -5.632292 7.065950 -0.474247
v 6.624594 6.939585 2.134994
v -5.630887 6.857114 -0.474247
v 6.559365 6.939146 2.441388
v -5.696116 6.856675 -0.167853
v -5.631402 7.095554 2.133008
v 6.624934 7.178031 -0.472215
v 6.559804 7.177593 -0.778630
v -5.696531 7.095116 1.826593
v 6.561210 6.968758 -0.778630
v -5.695126 6.886281 1.826593
v 6.626338 6.969196 -0.472216
v -5.629997 6.886719 2.133008
v -5.631402 7.095554 1.610906
v 6.624933 7.178031 -0.994317
v 6.559804 7.177593 -1.300732
v -5.696532 7.095117 1.304491
v 6.561210 6.968758 -1.300732
v -5.695126 6.886281 1.304491
v 6.626338 6.969196 -0.994317
v -5.629997 6.886719 1.610906
v -5.631403 7.095555 -0.477498
v 6.624932 7.178032 -3.082722
v 6.559803 7.177593 -3.389138
v -5.696531 7.095117 -0.783914
v 6.561209 6.968758 -3.389138
v -5.695126 6.886281 -0.783914
v 6.626338 6.969196 -3.082722
v -5.629997 6.886719 -0.477498
v -5.631403 7.095555 0.044603
v 6.624933 7.178032 -2.560620
v 6.559804 7.177593 -2.867036
v -5.696532 7.095117 -0.261812
v 6.561210 6.968758 -2.867036
v -5.695126 6.886281 -0.261813
v 6.626338 6.969196 -2.560620
v -5.629997 6.886719 0.044603
v -5.631402 7.095555 0.566704
v 6.624932 7.178032 -2.038519
v 6.559804 7.177593 -2.344934
v -5.696531 7.095117 0.260289
v 6.561210 6.968758 -2.344934
v -5.695126 6.886281 0.260289
v 6.626338 6.969196 -2.038519
v -5.629997 6.886719 0.566704
v -5.631402 7.095555 1.088805
v 6.624933 7.178032 -1.516418
v 6.559804 7.177593 -1.822834
v -5.696531 7.095117 0.782390
v 6.561209 6.968758 -1.822834
v -5.695126 6.886281 0.782390
v 6.626338 6.969196 -1.516418
v -5.629997 6.886719 1.088805
v 4.558790 -0.109933 -0.653950
v 4.558790 6.850710 0.827967
v 4.558791 6.887758 0.653951
v 4.558790 -0.072885 -0.827966
v 4.677402 6.887758 0.653951
v 4.677402 -0.072885 -0.827966
v 4.677402 6.850710 0.827967
v 4.677401 -0.109934 -0.653950
v 4.558790 -0.109934 -0.950476
v 4.558790 6.850710 0.531440
v 4.558791 6.887758 0.357424
v 4.558790 -0.072886 -1.124493
v 4.677402 6.887758 0.357424
v 4.677402 -0.072886 -1.124493
v 4.677402 6.850710 0.531440
v 4.677401 -0.109934 -0.950476
v 4.558790 -0.109934 -1.247003
v 4.558790 6.850710 0.234913
v 4.558790 6.887758 0.060897
v 4.558790 -0.072885 -1.421020
v 4.677401 6.887758 0.060897
v 4.677401 -0.072885 -1.421020
v 4.677402 6.850710 0.234913
v 4.677401 -0.109934 -1.247003
v 4.558790 -0.109934 -1.543530
v 4.558790 6.850710 -0.061614
v 4.558791 6.887758 -0.235630
v 4.558790 -0.072885 -1.717546
v 4.677402 6.887758 -0.235630
v 4.677402 -0.072885 -1.717546
v 4.677402 6.850710 -0.061614
v 4.677401 -0.109934 -1.543530
v 4.558791 -0.109934 -0.357423
v 4.558791 6.850710 1.124494
v 4.558791 6.887758 0.950478
v 4.558790 -0.072886 -0.531439
v 4.677401 6.887758 0.950478
v 4.677401 -0.072886 -0.531439
v 4.677402 6.850710 1.124494
v 4.677402 -0.109934 -0.357423
v 4.558790 -0.109933 -0.060896
v 4.558791 6.850710 1.421021
v 4.558791 6.887758 1.247005
v 4.558790 -0.072886 -0.234912
v 4.677402 6.887758 1.247005
v 4.677402 -0.072885 -0.234912
v 4.677402 6.850710 1.421021
v 4.677401 -0.109934 -0.060896
v 4.558790 -0.073158 1.245875
v 4.558790 6.887972 -0.233757
v 4.558790 6.850982 -0.407786
v 4.558791 -0.110148 1.071847
v 4.677402 6.850982 -0.407786
v 4.677401 -0.110149 1.071847
v 4.677401 6.887972 -0.233757
v 4.677402 -0.073158 1.245875
v 4.558790 -0.073157 0.949349
v 4.558790 6.887972 -0.530284
v 4.558790 6.850982 -0.704312
v 4.558790 -0.110148 0.775320
v 4.677401 6.850982 -0.704312
v 4.677401 -0.110148 0.775320
v 4.677401 6.887972 -0.530284
v 4.677402 -0.073157 0.949349
v 4.558790 -0.073157 -0.236759
v 4.558791 6.887973 -1.716391
v 4.558790 6.850982 -1.890420
v 4.558791 -0.110147 -0.410787
v 4.677402 6.850982 -1.890419
v 4.677402 -0.110148 -0.410787
v 4.677401 6.887973 -1.716391
v 4.677402 -0.073157 -0.236759
v 4.558791 -0.073157 0.059768
v 4.558791 6.887972 -1.419864
v 4.558790 6.850982 -1.593893
v 4.558791 -0.110148 -0.114260
v 4.677402 6.850982 -1.593892
v 4.677402 -0.110148 -0.114260
v 4.677402 6.887972 -1.419864
v 4.677402 -0.073157 0.059768
v 4.558791 -0.073157 0.356295
v 4.558791 6.887972 -1.123338
v 4.558790 6.850982 -1.297366
v 4.558791 -0.110148 0.182267
v 4.677402 6.850982 -1.297366
v 4.677401 -0.110148 0.182267
v 4.677402 6.887972 -1.123338
v 4.677402 -0.073157 0.356295
v 4.566514 -0.073157 0.652822
v 4.566514 6.887972 -0.826811
v 4.566513 6.850982 -1.000839
v 4.566514 -0.110148 0.478794
v 4.685124 6.850982 -1.000839
v 4.685124 -0.110148 0.478794
v 4.685124 6.887972 -0.826811
v 4.685124 -0.073157 0.652822
v -4.685125 -0.073157 0.652822
v -4.685125 6.887972 -0.826811
v -4.685125 6.850981 -1.000839
v -4.685125 -0.110148 0.478794
v -4.566514 6.850981 -1.000839
v -4.566514 -0.110148 0.478793
v -4.566514 6.887972 -0.826811
v -4.566514 -0.073157 0.652822
v -4.685125 -0.073157 0.356295
v -4.685125 6.887972 -1.123338
v -4.685125 6.850981 -1.297366
v -4.685125 -0.110148 0.182267
v -4.566514 6.850981 -1.297366
v -4.566515 -0.110148 0.182267
v -4.566515 6.887972 -1.123338
v -4.566514 -0.073157 0.356295
v -4.685125 -0.073157 0.059768
v -4.685125 6.887972 -1.419864
v -4.685125 6.850982 -1.593893
v -4.685125 -0.110148 -0.114261
v -4.566514 6.850982 -1.593893
v -4.566514 -0.110148 -0.114260
v -4.566514 6.887972 -1.419865
v -4.566514 -0.073157 0.059768
v -4.685125 -0.073158 -0.236759
v -4.685125 6.887973 -1.716391
v -4.685125 6.850982 -1.890420
v -4.685125 -0.110148 -0.410787
v -4.566514 6.850982 -1.890420
v -4.566514 -0.110148 -0.410787
v -4.566514 6.887972 -1.716391
v -4.566514 -0.073158 -0.236759
v -4.685125 -0.073157 0.949349
v -4.685125 6.887972 -0.530284
v -4.685125 6.850981 -0.704312
v -4.685125 -0.110148 0.775320
v -4.566514 6.850981 -0.704312
v -4.566515 -0.110148 0.775320
v -4.566514 6.887972 -0.530284
v -4.566514 -0.073157 0.949349
v -4.685125 -0.073158 1.245875
v -4.685125 6.887972 -0.233758
v -4.685125 6.850981 -0.407786
v -4.685125 -0.110148 1.071847
v -4.566514 6.850981 -0.407786
v -4.566515 -0.110148 1.071847
v -4.566514 6.887972 -0.233757
v -4.566514 -0.073158 1.245875
v -4.685125 -0.109934 -0.060897
v -4.685125 6.850710 1.421021
v -4.685125 6.887758 1.247005
v -4.685125 -0.072885 -0.234912
v -4.566514 6.887758 1.247005
v -4.566514 -0.072886 -0.234913
v -4.566514 6.850710 1.421021
v -4.566515 -0.109934 -0.060896
v -4.685125 -0.109934 -0.357423
v -4.685125 6.850710 1.124494
v -4.685125 6.887758 0.950478
v -4.685125 -0.072886 -0.531439
v -4.566514 6.887758 0.950478
v -4.566514 -0.072886 -0.531439
v -4.566514 6.850710 1.124493
v -4.566515 -0.109934 -0.357423
v -4.685125 -0.109934 -1.543530
v -4.685125 6.850710 -0.061614
v -4.685125 6.887758 -0.235630
v -4.685125 -0.072885 -1.717546
v -4.566514 6.887758 -0.235630
v -4.566514 -0.072885 -1.717546
v -4.566514 6.850710 -0.061614
v -4.566515 -0.109934 -1.543530
v -4.685125 -0.109934 -1.247003
v -4.685125 6.850710 0.234913
v -4.685125 6.887758 0.060897
v -4.685125 -0.072885 -1.421020
v -4.566514 6.887758 0.060897
v -4.566514 -0.072885 -1.421020
v -4.566514 6.850710 0.234913
v -4.566514 -0.109934 -1.247003
v -4.685125 -0.109934 -0.950476
v -4.685125 6.850710 0.531440
v -4.685125 6.887758 0.357424
v -4.685125 -0.072886 -1.124493
v -4.566514 6.887758 0.357424
v -4.566515 -0.072886 -1.124493
v -4.566514 6.850710 0.531440
v -4.566514 -0.109934 -0.950476
v -4.685125 -0.109934 -0.653950
v -4.685125 6.850710 0.827967
v -4.685125 6.887758 0.653951
v -4.685125 -0.072885 -0.827966
v -4.566514 6.887758 0.653951
v -4.566515 -0.072886 -0.827966
v -4.566514 6.850710 0.827967
v -4.566515 -0.109934 -0.653950
vn -0.0067 1.0000 0.0000
vn 0.2082 0.0014 -0.9781
vn 0.0067 -1.0000 0.0000
vn -0.2082 -0.0014 0.9781
vn -0.9781 -0.0066 -0.2082
vn 0.9781 0.0066 0.2082
vn 0.0000 1.0000 0.0000
vn 0.2082 0.0000 -0.9781
vn -0.0000 -1.0000 0.0000
vn -0.2082 0.0000 0.9781
vn -0.9781 -0.0000 -0.2082
vn 0.9781 0.0000 0.2082
vn -0.2079 -0.0014 -0.9781
vn 0.2079 0.0014 0.9781
vn -0.9781 -0.0066 0.2079
vn 0.9781 0.0066 -0.2079
vn -1.0000 0.0000 -0.0000
vn 0.0000 0.2082 -0.9781
vn 1.0000 0.0000 0.0000
vn -0.0000 -0.2082 0.9781
vn -0.0000 -0.9781 -0.2082
vn 0.0000 0.9781 0.2082
vn -0.0000 -0.2079 -0.9781
vn 0.0000 0.2079 0.9781
vn -0.0000 -0.9781 0.2079
vn 0.0000 0.9781 -0.2079
usemtl Material.001
s 1
f 1//1 2//1 3//1 4//1
f 4//2 3//2 5//2 6//2
f 6//3 5//3 7//3 8//3
f 8//4 7//4 2//4 1//4
f 4//5 6//5 8//5 1//5
f 5//6 3//6 2//6 7//6
f 9//1 10//1 11//1 12//1
f 12//2 11//2 13//2 14//2
f 14//3 13//3 15//3 16//3
f 16//4 15//4 10//4 9//4
f 12//5 14//5 16//5 9//5
f 13//6 11//6 10//6 15//6
f 17//1 18//1 19//1 20//1
f 20//2 19//2 21//2 22//2
f 22//3 21//3 23//3 24//3
f 24//4 23//4 18//4 17//4
f 20//5 22//5 24//5 17//5
f 21//6 19//6 18//6 23//6
f 25//1 26//1 27//1 28//1
f 28//2 27//2 29//2 30//2
f 30//3 29//3 31//3 32//3
f 32//4 31//4 26//4 25//4
f 28//5 30//5 32//5 25//5
f 29//6 27//6 26//6 31//6
f 33//7 34//7 35//7 36//7
f 36//8 35//8 37//8 38//8
f 38//9 37//9 39//9 40//9
f 40//10 39//10 34//10 33//10
f 36//11 38//11 40//11 33//11
f 37//12 35//12 34//12 39//12
f 41//1 42//1 43//1 44//1
f 44//2 43//2 45//2 46//2
f 46//3 45//3 47//3 48//3
f 48//4 47//4 42//4 41//4
f 44//5 46//5 48//5 41//5
f 45//6 43//6 42//6 47//6
f 49//1 50//1 51//1 52//1
f 52//13 51//13 53//13 54//13
f 54//3 53//3 55//3 56//3
f 56//14 55//14 50//14 49//14
f 52//15 54//15 56//15 49//15
f 53//16 51//16 50//16 55//16
f 57//1 58//1 59//1 60//1
f 60//13 59//13 61//13 62//13
f 62//3 61//3 63//3 64//3
f 64//14 63//14 58//14 57//14
f 60//15 62//15 64//15 57//15
f 61//16 59//16 58//16 63//16
f 65//1 66//1 67//1 68//1
f 68//13 67//13 69//13 70//13
f 70//3 69//3 71//3 72//3
f 72//14 71//14 66//14 65//14
f 68//15 70//15 72//15 65//15
f 69//16 67//16 66//16 71//16
f 73//1 74//1 75//1 76//1
f 76//13 75//13 77//13 78//13
f 78//3 77//3 79//3 80//3
f 80//14 79//14 74//14 73//14
f 76//15 78//15 80//15 73//15
f 77//16 75//16 74//16 79//16
f 81//1 82//1 83//1 84//1
f 84//13 83//13 85//13 86//13
f 86//3 85//3 87//3 88//3
f 88//14 87//14 82//14 81//14
f 84//15 86//15 88//15 81//15
f 85//16 83//16 82//16 87//16
f 89//1 90//1 91//1 92//1
f 92//13 91//13 93//13 94//13
f 94//3 93//3 95//3 96//3
f 96//14 95//14 90//14 89//14
f 92//15 94//15 96//15 89//15
f 93//16 91//16 90//16 95//16
f 97//17 98//17 99//17 100//17
f 100//18 99//18 101//18 102//18
f 102//19 101//19 103//19 104//19
f 104//20 103//20 98//20 97//20
f 100//21 102//21 104//21 97//21
f 101//22 99//22 98//22 103//22
f 105//17 106//17 107//17 108//17
f 108//18 107//18 109//18 110//18
f 110//19 109//19 111//19 112//19
f 112//20 111//20 106//20 105//20
f 108//21 110//21 112//21 105//21
f 109//22 107//22 106//22 111//22
f 113//17 114//17 115//17 116//17
f 116//18 115//18 117//18 118//18
f 118//19 117//19 119//19 120//19
f 120//20 119//20 114//20 113//20
f 116//21 118//21 120//21 113//21
f 117//22 115//22 114//22 119//22
f 121//17 122//17 123//17 124//17
f 124//18 123//18 125//18 126//18
f 126//19 125//19 127//19 128//19
f 128//20 127//20 122//20 121//20
f 124//21 126//21 128//21 121//21
f 125//22 123//22 122//22 127//22
f 129//17 130//17 131//17 132//17
f 132//18 131//18 133//18 134//18
f 134//19 133//19 135//19 136//19
f 136//20 135//20 130//20 129//20
f 132//21 134//21 136//21 129//21
f 133//22 131//22 130//22 135//22
f 137//17 138//17 139//17 140//17
f 140//18 139//18 141//18 142//18
f 142//19 141//19 143//19 144//19
f 144//20 143//20 138//20 137//20
f 140//21 142//21 144//21 137//21
f 141//22 139//22 138//22 143//22
f 145//17 146//17 147//17 148//17
f 148//23 147//23 149//23 150//23
f 150//19 149//19 151//19 152//19
f 152//24 151//24 146//24 145//24
f 148//25 150//25 152//25 145//25
f 149//26 147//26 146//26 151//26
f 153//17 154//17 155//17 156//17
f 156//23 155//23 157//23 158//23
f 158//19 157//19 159//19 160//19
f 160//24 159//24 154//24 153//24
f 156//25 158//25 160//25 153//25
f 157//26 155//26 154//26 159//26
f 161//17 162//17 163//17 164//17
f 164//23 163//23 165//23 166//23
f 166//19 165//19 167//19 168//19
f 168//24 167//24 162//24 161//24
f 164//25 166//25 168//25 161//25
f 165//26 163//26 162//26 167//26
f 169//17 170//17 171//17 172//17
f 172//23 171//23 173//23 174//23
f 174//19 173//19 175//19 176//19
f 176//24 175//24 170//24 169//24
f 172//25 174//25 176//25 169//25
f 173//26 171//26 170//26 175//26
f 177//17 178//17 179//17 180//17
f 180//23 179//23 181//23 182//23
f 182//19 181//19 183//19 184//19
f 184//24 183//24 178//24 177//24
f 180//25 182//25 184//25 177//25
f 181//26 179//26 178//26 183//26
f 185//17 186//17 187//17 188//17
f 188//23 187//23 189//23 190//23
f 190//19 189//19 191//19 192//19
f 192//24 191//24 186//24 185//24
f 188//25 190//25 192//25 185//25
f 189//26 187//26 186//26 191//26
f 193//17 194//17 195//17 196//17
f 196//23 195//23 197//23 198//23
f 198//19 197//19 199//19 200//19
f 200//24 199//24 194//24 193//24
f 196//25 198//25 200//25 193//25
f 197//26 195//26 194//26 199//26
f 201//17 202//17 203//17 204//17
f 204//23 203//23 205//23 206//23
f 206//19 205//19 207//19 208//19
f 208//24 207//24 202//24 201//24
f 204//25 206//25 208//25 201//25
f 205//26 203//26 202//26 207//26
f 209//17 210//17 211//17 212//17
f 212//23 211//23 213//23 214//23
f 214//19 213//19 215//19 216//19
f 216//24 215//24 210//24 209//24
f 212//25 214//25 216//25 209//25
f 213//26 211//26 210//26 215//26
f 217//17 218//17 219//17 220//17
f 220//23 219//23 221//23 222//23
f 222//19 221//19 223//19 224//19
f 224//24 223//24 218//24 217//24
f 220//25 222//25 224//25 217//25
f 221//26 219//26 218//26 223//26
f 225//17 226//17 227//17 228//17
f 228//23 227//23 229//23 230//23
f 230//19 229//19 231//19 232//19
f 232//24 231//24 226//24 225//24
f 228//25 230//25 232//25 225//25
f 229//26 227//26 226//26 231//26
f 233//17 234//17 235//17 236//17
f 236//23 235//23 237//23 238//23
f 238//19 237//19 239//19 240//19
f 240//24 239//24 234//24 233//24
f 236//25 238//25 240//25 233//25
f 237//26 235//26 234//26 239//26
f 241//17 242//17 243//17 244//17
f 244//18 243//18 245//18 246//18
f 246//19 245//19 247//19 248//19
f 248//20 247//20 242//20 241//20
f 244//21 246//21 248//21 241//21
f 245//22 243//22 242//22 247//22
f 249//17 250//17 251//17 252//17
f 252//18 251//18 253//18 254//18
f 254//19 253//19 255//19 256//19
f 256//20 255//20 250//20 249//20
f 252//21 254//21 256//21 249//21
f 253//22 251//22 250//22 255//22
f 257//17 258//17 259//17 260//17
f 260//18 259//18 261//18 262//18
f 262//19 261//19 263//19 264//19
f 264//20 263//20 258//20 257//20
f 260//21 262//21 264//21 257//21
f 261//22 259//22 258//22 263//22
f 265//17 266//17 267//17 268//17
f 268//18 267//18 269//18 270//18
f 270//19 269//19 271//19 272//19
f 272//20 271//20 266//20 265//20
f 268//21 270//21 272//21 265//21
f 269//22 267//22 266//22 271//22
f 273//17 274//17 275//17 276//17
f 276//18 275//18 277//18 278//18
f 278//19 277//19 279//19 280//19
f 280//20 279//20 274//20 273//20
f 276//21 278//21 280//21 273//21
f 277//22 275//22 274//22 279//22
f 281//17 282//17 283//17 284//17
f 284//18 283//18 285//18 286//18
f 286//19 285//19 287//19 288//19
f 288//20 287//20 282//20 281//20
f 284//21 286//21 288//21 281//21
f 285//22 283//22 282//22 287//22
